<?xml version="1.0" encoding="UTF-8"?>
<svg id="Layer_1" data-name="Layer 1" xmlns="http://www.w3.org/2000/svg" viewBox="0 0 665.15 144.09">
  <defs>
    <style>
      .cls-1 {
        letter-spacing: .01em;
      }

      .cls-2 {
        letter-spacing: 0em;
      }

      .cls-3 {
        letter-spacing: -.02em;
      }

      .cls-4 {
        stroke: #fff;
        stroke-miterlimit: 10;
      }

      .cls-4, .cls-5, .cls-6, .cls-7 {
        fill: #fff;
      }

      .cls-8 {
        letter-spacing: -.09em;
      }

      .cls-9 {
        letter-spacing: 0em;
      }

      .cls-10 {
        letter-spacing: 0em;
      }

      .cls-11 {
        letter-spacing: -.11em;
      }

      .cls-6 {
        font-size: 35.75px;
      }

      .cls-6, .cls-7 {
        font-family: AcuminConcept-Light, 'Acumin Variable Concept';
        font-variation-settings: 'wght' 300, 'wdth' 100, 'slnt' 0;
        font-weight: 300;
      }

      .cls-12 {
        letter-spacing: 0em;
      }

      .cls-13 {
        letter-spacing: 0em;
      }

      .cls-14 {
        letter-spacing: .01em;
      }

      .cls-15 {
        letter-spacing: -.09em;
      }

      .cls-16 {
        letter-spacing: -.08em;
      }

      .cls-7 {
        font-size: 24.2px;
      }

      .cls-17 {
        letter-spacing: 0em;
      }

      .cls-18 {
        letter-spacing: 0em;
      }
    </style>
  </defs>
  <path class="cls-5" d="M24.13,35.92c2.59,0,4.96.95,6.78,2.51V1.08c-7.49,0-13.56,6.07-13.56,13.56v23.78c1.82-1.56,4.19-2.51,6.78-2.51Z"/>
  <line class="cls-4" x1="43.49" y1="92.71" x2="664.68" y2="92.71"/>
  <path class="cls-5" d="M150.94,4.77c5.82,3.18,10.51,7.74,14.05,13.67,3.54,5.93,5.32,12.8,5.32,20.61s-1.77,14.68-5.32,20.61c-3.54,5.93-8.23,10.49-14.05,13.67-5.82,3.18-12.03,4.77-18.61,4.77s-12.79-1.59-18.61-4.77c-5.82-3.18-10.51-7.74-14.05-13.67-3.54-5.93-5.32-12.8-5.32-20.61s1.77-14.68,5.32-20.61c3.54-5.93,8.23-10.49,14.05-13.67,5.82-3.18,12.02-4.77,18.61-4.77s12.78,1.59,18.61,4.77ZM120.4,15.95c-3.54,1.95-6.33,4.88-8.35,8.79-2.03,3.91-3.04,8.68-3.04,14.32s1.01,10.42,3.04,14.32c2.02,3.91,4.81,6.83,8.35,8.79,3.54,1.95,7.52,2.93,11.93,2.93s8.39-.98,11.93-2.93c3.54-1.95,6.33-4.88,8.35-8.79,2.02-3.91,3.04-8.68,3.04-14.32s-1.01-10.42-3.04-14.32c-2.03-3.91-4.81-6.83-8.35-8.79-3.54-1.95-7.52-2.93-11.93-2.93s-8.39.98-11.93,2.93Z"/>
  <path class="cls-5" d="M242.46,77.03h-16.27l-18.12-27.12h-10.09v27.12h0c-7.79,0-14.1-6.31-14.1-14.1V1.08h25.17c7.59,0,14.16,1.86,19.69,5.59,5.53,3.73,8.3,9.89,8.3,18.5,0,5.5-1.37,10.02-4.12,13.56-2.75,3.54-6.37,6.15-10.85,7.81l20.4,30.49ZM197.97,14.1v22.78h11.07c3.98,0,7.2-.88,9.66-2.66,2.46-1.77,3.69-4.72,3.69-8.84s-1.23-6.94-3.69-8.68c-2.46-1.74-5.68-2.6-9.66-2.6h-11.07Z"/>
  <path class="cls-5" d="M301.04,1.08v13.02h-21.7v48.82c0,7.79-6.31,14.1-14.1,14.1h0V14.1h-21.7V1.08h57.5Z"/>
  <path class="cls-5" d="M370.48,1.08v61.84c0,7.79-6.31,14.1-14.1,14.1h0v-32.55h-31.46v32.55h0c-7.79,0-14.1-6.31-14.1-14.1V1.08h14.1v30.38h31.46V1.08h14.1Z"/>
  <path class="cls-5" d="M434.22,62.6c.26-.13.51-.27.76-.41,5.96-3.37,13.42-2.45,18.5,2.15h0c-3.4,4.2-7.52,7.54-12.37,10.04-4.85,2.5-10.89,3.74-18.12,3.74s-13.71-1.61-19.64-4.83c-5.93-3.22-10.63-7.79-14.1-13.72-3.47-5.93-5.21-12.77-5.21-20.51s1.74-14.57,5.21-20.51c3.47-5.93,8.17-10.51,14.1-13.72,5.93-3.22,12.48-4.83,19.64-4.83s13.27,1.25,18.12,3.74c4.84,2.5,8.97,5.84,12.37,10.04l-10.31,9.33c-2.75-3.4-5.73-5.93-8.95-7.59-3.22-1.66-6.96-2.5-11.23-2.5-4.49,0-8.57,1-12.26,2.98-3.69,1.99-6.62,4.94-8.79,8.84s-3.25,8.64-3.25,14.21,1.08,10.31,3.25,14.21,5.1,6.85,8.79,8.84c3.69,1.99,7.77,2.98,12.26,2.98s8.01-.83,11.23-2.5Z"/>
  <path class="cls-5" d="M479.51,1.08v62.93h20.61c7.19,0,13.02,5.83,13.02,13.02h0s-47.74,0-47.74,0V1.08h14.1Z"/>
  <path class="cls-5" d="M537.56,15.19v61.84h0c-7.79,0-14.1-6.31-14.1-14.1V1.08h0c7.79,0,14.1,6.31,14.1,14.1Z"/>
  <path class="cls-5" d="M603.63,1.08v13.02h-34.72v19.53h32.55v13.02h-32.55v30.38h0c-7.79,0-14.1-6.31-14.1-14.1V1.08h48.82Z"/>
  <path class="cls-5" d="M663.85,1.08v13.02h-34.72v19.53h32.55v13.02h-32.55v30.38h0c-7.79,0-14.1-6.31-14.1-14.1V1.08h48.82Z"/>
  <text class="cls-7" transform="translate(209.9 133.76)"><tspan class="cls-12" x="0" y="0">M</tspan><tspan class="cls-17" x="21.03" y="0">ED</tspan><tspan class="cls-2" x="52.59" y="0">I</tspan><tspan class="cls-8" x="59" y="0">A</tspan><tspan class="cls-18" x="72.63" y="0">TIO</tspan><tspan class="cls-10" x="110.26" y="0">N</tspan><tspan class="cls-17" x="128.15" y="0">, </tspan><tspan class="cls-13" x="138.89" y="0">C</tspan><tspan x="155.49" y="0">O</tspan><tspan class="cls-10" x="173.55" y="0">N</tspan><tspan class="cls-3" x="191.43" y="0">S</tspan><tspan class="cls-9" x="205.47" y="0">U</tspan><tspan class="cls-11" x="222.75" y="0">L</tspan><tspan class="cls-16" x="233.5" y="0">T</tspan><tspan class="cls-15" x="244.85" y="0">A</tspan><tspan x="258.47" y="0">TION &amp; T</tspan><tspan class="cls-14" x="357.38" y="0">R</tspan><tspan class="cls-10" x="373.07" y="0">A</tspan><tspan class="cls-12" x="388.75" y="0">INI</tspan><tspan x="419.92" y="0">NG</tspan></text>
  <text class="cls-6" transform="translate(39.71 134.74)"><tspan x="0" y="0">M</tspan><tspan class="cls-1" x="30.78" y="0">C</tspan><tspan x="55.45" y="0">T</tspan></text>
  <path class="cls-5" d="M67.24,1.08v51.54h-.54L33.06,1.08h-.16v24.41h.16l33.63,51.54h14.1V14.65c0-7.49-6.07-13.56-13.56-13.56h0Z"/>
  <g>
    <circle class="cls-5" cx="24.13" cy="47.62" r="8.01"/>
    <circle class="cls-5" cx="24.13" cy="65.01" r="8.01"/>
    <circle class="cls-5" cx="24.13" cy="82.39" r="8.01"/>
  </g>
  <path class="cls-5" d="M24.13,94.1c-2.59,0-4.96-.95-6.78-2.51v43.15c7.49,0,13.56-6.07,13.56-13.56v-29.59c-1.82,1.56-4.19,2.51-6.78,2.51Z"/>
  <path class="cls-5" d="M-18.95,60.26h51.47v2.09c0,6.25-5.08,11.33-11.33,11.33H-5.53c-7.41,0-13.42-6.01-13.42-13.42h0Z" transform="translate(73.8 60.55) rotate(90.32)"/>
</svg>