<?xml version="1.0" encoding="UTF-8"?>
<svg id="Layer_1" data-name="Layer 1" xmlns="http://www.w3.org/2000/svg" xmlns:xlink="http://www.w3.org/1999/xlink" viewBox="0 0 665.15 144.09">
  <defs>
    <style>
      .cls-1 {
        fill: #153e48;
      }

      .cls-2 {
        fill: #4e5430;
        stroke: #2e3314;
        stroke-miterlimit: 10;
      }

      .cls-3 {
        fill: #f8580d;
      }

      .cls-4 {
        fill: #333;
      }

      .cls-5 {
        fill: #668825;
      }

      .cls-6 {
        fill: #757d2e;
      }

      .cls-7 {
        fill: url(#linear-gradient);
      }

      .cls-8 {
        fill: #f1e5dd;
      }
    </style>
    <linearGradient id="linear-gradient" x1="32.9" y1="39.06" x2="80.8" y2="39.06" gradientUnits="userSpaceOnUse">
      <stop offset="0" stop-color="#006837"/>
      <stop offset=".03" stop-color="#106d34"/>
      <stop offset=".1" stop-color="#2a752f"/>
      <stop offset=".18" stop-color="#407c2b"/>
      <stop offset=".28" stop-color="#518128"/>
      <stop offset=".39" stop-color="#5d8526"/>
      <stop offset=".55" stop-color="#648725"/>
      <stop offset="1" stop-color="#668825"/>
    </linearGradient>
  </defs>
  <path class="cls-8" d="M24.13,35.92c2.59,0,4.96.95,6.78,2.51V1.08c-7.49,0-13.56,6.07-13.56,13.56v23.78c1.82-1.56,4.19-2.51,6.78-2.51Z"/>
  <line class="cls-2" x1="43.49" y1="92.71" x2="664.68" y2="92.71"/>
  <path class="cls-5" d="M150.94,4.77c5.82,3.18,10.51,7.74,14.05,13.67,3.54,5.93,5.32,12.8,5.32,20.61s-1.77,14.68-5.32,20.61c-3.54,5.93-8.23,10.49-14.05,13.67-5.82,3.18-12.03,4.77-18.61,4.77s-12.79-1.59-18.61-4.77c-5.82-3.18-10.51-7.74-14.05-13.67-3.54-5.93-5.32-12.8-5.32-20.61s1.77-14.68,5.32-20.61c3.54-5.93,8.23-10.49,14.05-13.67,5.82-3.18,12.02-4.77,18.61-4.77s12.78,1.59,18.61,4.77ZM120.4,15.95c-3.54,1.95-6.33,4.88-8.35,8.79-2.03,3.91-3.04,8.68-3.04,14.32s1.01,10.42,3.04,14.32c2.02,3.91,4.81,6.83,8.35,8.79,3.54,1.95,7.52,2.93,11.93,2.93s8.39-.98,11.93-2.93c3.54-1.95,6.33-4.88,8.35-8.79,2.02-3.91,3.04-8.68,3.04-14.32s-1.01-10.42-3.04-14.32c-2.03-3.91-4.81-6.83-8.35-8.79-3.54-1.95-7.52-2.93-11.93-2.93s-8.39.98-11.93,2.93Z"/>
  <path class="cls-5" d="M242.46,77.03h-16.27l-18.12-27.12h-10.09v27.12h0c-7.79,0-14.1-6.31-14.1-14.1V1.08h25.17c7.59,0,14.16,1.86,19.69,5.59,5.53,3.73,8.3,9.89,8.3,18.5,0,5.5-1.37,10.02-4.12,13.56-2.75,3.54-6.37,6.15-10.85,7.81l20.4,30.49ZM197.97,14.1v22.78h11.07c3.98,0,7.2-.88,9.66-2.66,2.46-1.77,3.69-4.72,3.69-8.84s-1.23-6.94-3.69-8.68c-2.46-1.74-5.68-2.6-9.66-2.6h-11.07Z"/>
  <path class="cls-5" d="M301.04,1.08v13.02h-21.7v48.82c0,7.79-6.31,14.1-14.1,14.1h0V14.1h-21.7V1.08h57.5Z"/>
  <path class="cls-5" d="M370.48,1.08v61.84c0,7.79-6.31,14.1-14.1,14.1h0v-32.55h-31.46v32.55h0c-7.79,0-14.1-6.31-14.1-14.1V1.08h14.1v30.38h31.46V1.08h14.1Z"/>
  <path class="cls-5" d="M434.22,62.6c.26-.13.51-.27.76-.41,5.96-3.37,13.42-2.45,18.5,2.15h0c-3.4,4.2-7.52,7.54-12.37,10.04-4.85,2.5-10.89,3.74-18.12,3.74s-13.71-1.61-19.64-4.83c-5.93-3.22-10.63-7.79-14.1-13.72-3.47-5.93-5.21-12.77-5.21-20.51s1.74-14.57,5.21-20.51c3.47-5.93,8.17-10.51,14.1-13.72,5.93-3.22,12.48-4.83,19.64-4.83s13.27,1.25,18.12,3.74c4.84,2.5,8.97,5.84,12.37,10.04l-10.31,9.33c-2.75-3.4-5.73-5.93-8.95-7.59-3.22-1.66-6.96-2.5-11.23-2.5-4.49,0-8.57,1-12.26,2.98-3.69,1.99-6.62,4.94-8.79,8.84s-3.25,8.64-3.25,14.21,1.08,10.31,3.25,14.21,5.1,6.85,8.79,8.84c3.69,1.99,7.77,2.98,12.26,2.98s8.01-.83,11.23-2.5Z"/>
  <path class="cls-5" d="M479.51,1.08v62.93h20.61c7.19,0,13.02,5.83,13.02,13.02h0s-47.74,0-47.74,0V1.08h14.1Z"/>
  <path class="cls-5" d="M537.56,15.19v61.84h0c-7.79,0-14.1-6.31-14.1-14.1V1.08h0c7.79,0,14.1,6.31,14.1,14.1Z"/>
  <path class="cls-5" d="M603.63,1.08v13.02h-34.72v19.53h32.55v13.02h-32.55v30.38h0c-7.79,0-14.1-6.31-14.1-14.1V1.08h48.82Z"/>
  <path class="cls-5" d="M663.85,1.08v13.02h-34.72v19.53h32.55v13.02h-32.55v30.38h0c-7.79,0-14.1-6.31-14.1-14.1V1.08h48.82Z"/>
  <g>
    <path class="cls-4" d="M226.74,126.25c0-3.23.03-6.4.1-8.13h-.08c-.7,2.48-3.81,10.32-5.86,15.65h-1.61c-1.55-4.22-4.77-12.97-5.54-15.67h-.06c.12,1.94.18,5.79.18,8.69v6.99h-1.67v-16.89h2.58c2.14,5.54,4.8,12.75,5.4,14.77h.04c.39-1.41,3.5-9.38,5.69-14.77h2.53v16.89h-1.7v-7.51Z"/>
    <path class="cls-4" d="M243.46,125.64h-8.52v6.59h9.34l-.24,1.53h-10.81v-16.89h10.65v1.53h-8.94v5.72h8.52v1.53Z"/>
    <path class="cls-4" d="M247.48,116.87h5.8c4.69,0,7.9,3.24,7.9,8.29s-3.13,8.6-7.94,8.6h-5.75v-16.89ZM249.21,132.24h3.84c4.24,0,6.3-3.01,6.3-7.02,0-3.54-1.86-6.83-6.3-6.83h-3.84v13.85Z"/>
    <path class="cls-4" d="M266.52,116.87v16.89h-1.73v-16.89h1.73Z"/>
    <path class="cls-4" d="M273.2,128.27l-2,5.49h-1.73l6.12-16.89h2.09l6.38,16.89h-1.86l-2.05-5.49h-6.95ZM279.65,126.74c-1.76-4.76-2.69-7.15-3.04-8.35h-.02c-.41,1.35-1.45,4.28-2.87,8.35h5.94Z"/>
    <path class="cls-4" d="M288.26,118.39h-5.57v-1.53h12.91v1.53h-5.59v15.37h-1.75v-15.37Z"/>
    <path class="cls-4" d="M299.79,116.87v16.89h-1.73v-16.89h1.73Z"/>
    <path class="cls-4" d="M318.84,125.2c0,4.63-2.53,8.8-7.79,8.8-4.85,0-7.63-3.84-7.63-8.69s2.75-8.69,7.81-8.69c4.69,0,7.61,3.61,7.61,8.58ZM305.25,125.24c0,3.78,2.02,7.24,5.89,7.24,4.17,0,5.88-3.42,5.88-7.25s-1.94-7.08-5.85-7.08c-4.11,0-5.91,3.37-5.91,7.09Z"/>
    <path class="cls-4" d="M322.46,133.76v-16.89h2.4c2.54,4.01,8.31,12.98,9.32,14.81h.03c-.15-2.32-.13-4.88-.13-7.64v-7.17h1.68v16.89h-2.24c-2.38-3.8-8.31-13.27-9.45-15.14h-.03c.12,2.09.11,4.73.11,7.79v7.36h-1.69Z"/>
    <path class="cls-4" d="M338.09,136.53c1.22-2.51,1.62-4.64,1.71-6.07h1.64c-.19,2.08-.96,4.53-1.97,6.07h-1.38Z"/>
    <path class="cls-4" d="M364.12,129.12c-.78,2.76-2.83,4.84-6.52,4.84-4.94,0-7.5-3.85-7.5-8.61s2.53-8.72,7.55-8.72c3.8,0,5.95,2.14,6.48,4.96h-1.73c-.7-2.04-2.03-3.46-4.84-3.46-3.99,0-5.64,3.63-5.64,7.18s1.61,7.15,5.74,7.15c2.69,0,3.97-1.46,4.72-3.33h1.73Z"/>
    <path class="cls-4" d="M382.13,125.2c0,4.63-2.53,8.8-7.79,8.8-4.85,0-7.63-3.84-7.63-8.69s2.75-8.69,7.81-8.69c4.69,0,7.61,3.61,7.61,8.58ZM368.54,125.24c0,3.78,2.02,7.24,5.89,7.24,4.17,0,5.88-3.42,5.88-7.25s-1.94-7.08-5.85-7.08c-4.11,0-5.91,3.37-5.91,7.09Z"/>
    <path class="cls-4" d="M385.75,133.76v-16.89h2.4c2.54,4.01,8.31,12.98,9.32,14.81h.03c-.15-2.32-.13-4.88-.13-7.64v-7.17h1.68v16.89h-2.24c-2.38-3.8-8.31-13.27-9.45-15.14h-.03c.12,2.09.11,4.73.11,7.79v7.36h-1.69Z"/>
    <path class="cls-4" d="M404.18,129.15c.48,2.15,1.93,3.37,4.56,3.37,2.88,0,4-1.41,4-3.13,0-1.81-.84-2.89-4.41-3.76-3.76-.93-5.23-2.18-5.23-4.59s1.72-4.41,5.41-4.41,5.46,2.29,5.68,4.42h-1.77c-.35-1.67-1.42-2.94-3.99-2.94-2.27,0-3.52,1.04-3.52,2.8s1.04,2.42,4.08,3.16c4.78,1.18,5.55,3.07,5.55,5.16,0,2.59-1.9,4.74-5.91,4.74-4.23,0-5.91-2.4-6.24-4.81h1.77Z"/>
    <path class="cls-4" d="M419.32,116.87v10.2c0,4.26,2.38,5.39,4.67,5.39,2.69,0,4.65-1.17,4.65-5.39v-10.2h1.75v10.11c0,5.37-2.9,6.98-6.44,6.98s-6.38-1.76-6.38-6.79v-10.3h1.77Z"/>
    <path class="cls-4" d="M434.95,116.87h1.73v15.37h8.96l-.27,1.53h-10.41v-16.89Z"/>
    <path class="cls-4" d="M449.13,118.39h-5.57v-1.53h12.91v1.53h-5.59v15.37h-1.75v-15.37Z"/>
    <path class="cls-4" d="M459.04,128.27l-2,5.49h-1.73l6.12-16.89h2.09l6.38,16.89h-1.86l-2.05-5.49h-6.95ZM465.49,126.74c-1.76-4.76-2.69-7.15-3.04-8.35h-.02c-.41,1.35-1.45,4.28-2.87,8.35h5.94Z"/>
    <path class="cls-4" d="M474.11,118.39h-5.57v-1.53h12.91v1.53h-5.59v15.37h-1.75v-15.37Z"/>
    <path class="cls-4" d="M485.64,116.87v16.89h-1.73v-16.89h1.73Z"/>
    <path class="cls-4" d="M504.69,125.2c0,4.63-2.53,8.8-7.79,8.8-4.85,0-7.63-3.84-7.63-8.69s2.75-8.69,7.81-8.69c4.69,0,7.61,3.61,7.61,8.58ZM491.1,125.24c0,3.78,2.02,7.24,5.89,7.24,4.17,0,5.88-3.42,5.88-7.25s-1.94-7.08-5.85-7.08c-4.11,0-5.91,3.37-5.91,7.09Z"/>
    <path class="cls-4" d="M508.31,133.76v-16.89h2.4c2.54,4.01,8.31,12.98,9.32,14.81h.03c-.15-2.32-.13-4.88-.13-7.64v-7.17h1.68v16.89h-2.24c-2.38-3.8-8.31-13.27-9.45-15.14h-.03c.12,2.09.11,4.73.11,7.79v7.36h-1.69Z"/>
    <path class="cls-4" d="M546.59,122.97l-4.25,6.44c-2.03,3.07-3.49,4.6-6.37,4.6s-4.57-2.23-4.57-4.37,1.07-3.67,4.54-5.51c2.33-1.42,3.38-2.14,3.38-3.7,0-1.25-.78-2.46-2.31-2.46-1.42,0-2.41.9-2.41,2.54,0,1.07.77,2.05,2.13,3.34l10.07,9.9h-2.3l-9.09-8.96c-1.47-1.41-2.4-2.55-2.4-4.24,0-2.02,1.39-3.94,4.03-3.94,2.32,0,3.85,1.7,3.85,3.79,0,1.75-1.04,2.85-4.02,4.62-3.18,1.74-3.77,2.93-3.77,4.45,0,1.63,1.36,3.03,2.93,3.03,1.93,0,3.12-.72,5.27-4.07l3.49-5.46h1.79Z"/>
    <path class="cls-4" d="M559.78,118.39h-5.57v-1.53h12.91v1.53h-5.59v15.37h-1.75v-15.37Z"/>
    <path class="cls-4" d="M571.31,126.07v7.69h-1.73v-16.89h6.3c3.39,0,5.2,1.83,5.2,4.48,0,2.17-1.27,3.54-3.03,3.97,1.58.39,2.75,1.48,2.75,4.38v.68c0,1.17-.08,2.71.22,3.39h-1.71c-.31-.73-.26-2.06-.26-3.57v-.4c0-2.61-.76-3.72-3.9-3.72h-3.84ZM571.31,124.56h3.9c2.79,0,4.06-1.05,4.06-3.12,0-1.95-1.27-3.06-3.75-3.06h-4.21v6.18Z"/>
    <path class="cls-4" d="M587.26,128.27l-2,5.49h-1.73l6.12-16.89h2.09l6.38,16.89h-1.86l-2.05-5.49h-6.95ZM593.71,126.74c-1.76-4.76-2.69-7.15-3.04-8.35h-.02c-.41,1.35-1.45,4.28-2.87,8.35h5.94Z"/>
    <path class="cls-4" d="M602.67,116.87v16.89h-1.73v-16.89h1.73Z"/>
    <path class="cls-4" d="M607.48,133.76v-16.89h2.4c2.54,4.01,8.31,12.98,9.32,14.81h.03c-.15-2.32-.13-4.88-.13-7.64v-7.17h1.68v16.89h-2.24c-2.38-3.8-8.31-13.27-9.45-15.14h-.03c.12,2.09.11,4.73.11,7.79v7.36h-1.69Z"/>
    <path class="cls-4" d="M627.31,116.87v16.89h-1.73v-16.89h1.73Z"/>
    <path class="cls-4" d="M632.12,133.76v-16.89h2.4c2.54,4.01,8.31,12.98,9.32,14.81h.03c-.15-2.32-.13-4.88-.13-7.64v-7.17h1.68v16.89h-2.24c-2.38-3.8-8.31-13.27-9.45-15.14h-.03c.12,2.09.11,4.73.11,7.79v7.36h-1.69Z"/>
    <path class="cls-4" d="M663.36,133.76h-1.37c-.1-.25-.16-1.07-.19-2.52-.66,1.18-2.05,2.73-5.36,2.73-4.86,0-7.39-3.69-7.39-8.5,0-5.05,2.71-8.85,7.72-8.85,3.77,0,6.21,2,6.72,5.08h-1.73c-.66-2.16-2.18-3.57-5.04-3.57-4.09,0-5.85,3.21-5.85,7.25,0,3.69,1.73,7.07,5.71,7.07s5.1-2.65,5.1-5.99v-.19h-5.14v-1.53h6.81v9Z"/>
  </g>
  <g>
    <path class="cls-4" d="M64.59,123.64c0-4.77.04-9.46.15-12.01h-.12c-1.03,3.66-5.63,15.25-8.66,23.11h-2.38c-2.29-6.23-7.05-19.16-8.18-23.16h-.09c.18,2.87.26,8.56.26,12.83v10.32h-2.46v-24.96h3.81c3.16,8.19,7.09,18.84,7.98,21.82h.07c.58-2.08,5.16-13.86,8.4-21.82h3.73v24.96h-2.52v-11.1Z"/>
    <path class="cls-4" d="M93.14,127.89c-1.15,4.08-4.17,7.15-9.63,7.15-7.3,0-11.07-5.69-11.07-12.72s3.74-12.89,11.15-12.89c5.61,0,8.79,3.16,9.57,7.33h-2.55c-1.03-3.01-3-5.11-7.14-5.11-5.89,0-8.33,5.37-8.33,10.6s2.37,10.56,8.47,10.56c3.97,0,5.86-2.15,6.97-4.93h2.56Z"/>
    <path class="cls-4" d="M103.63,112.04h-8.24v-2.26h19.07v2.26h-8.26v22.7h-2.58v-22.7Z"/>
  </g>
  <path class="cls-7" d="M67.24,1.08v51.54h-.54L33.06,1.08h-.16v24.41h.16l33.63,51.54h14.1V14.65c0-7.49-6.07-13.56-13.56-13.56h0Z"/>
  <g>
    <circle class="cls-6" cx="24.13" cy="47.62" r="8.01"/>
    <circle class="cls-3" cx="24.13" cy="65.01" r="8.01"/>
    <circle class="cls-1" cx="24.13" cy="82.39" r="8.01"/>
  </g>
  <path class="cls-1" d="M24.13,94.1c-2.59,0-4.96-.95-6.78-2.51v43.15c7.49,0,13.56-6.07,13.56-13.56v-29.59c-1.82,1.56-4.19,2.51-6.78,2.51Z"/>
  <path class="cls-6" d="M-18.95,60.26h51.47v2.09c0,6.25-5.08,11.33-11.33,11.33H-5.53c-7.41,0-13.42-6.01-13.42-13.42h0Z" transform="translate(73.8 60.55) rotate(90.32)"/>
</svg>